<svg xmlns="http://www.w3.org/2000/svg" style="display: none;">
  <!-- Select / Pointer -->
  <symbol id="icon-select" viewBox="0 0 24 24">
    <path d="M7 2L19 13.2L13.2 13.7L16.5 21L14.3 21.9L11.1 14.5L6.7 19.1L7 2Z"/>
  </symbol>

  <!-- Move / Pan -->
  <symbol id="icon-move" viewBox="0 0 24 24">
    <path d="M13 13H19V11H13V5H11V11H5V13H11V19H13V13Z M12 2L16 6H8L12 2Z M22 12L18 8V16L22 12Z M12 22L8 18H16L12 22Z M2 12L6 16V8L2 12Z"/>
  </symbol>

  <!-- Wall -->
  <symbol id="icon-wall" viewBox="0 0 24 24">
    <path d="M3 5v14h18V5H3zm2 2h14v2H5V7zm0 4h6v2H5v-2zm8 0h6v2h-6v-2zm-8 4h14v2H5v-2z"/>
  </symbol>

  <!-- Door -->
  <symbol id="icon-door" viewBox="0 0 24 24">
    <path d="M5 3C3.9 3 3 3.9 3 5V19C3 20.1 3.9 21 5 21H19C20.1 21 21 20.1 21 19V5C21 3.9 20.1 3 19 3H5ZM19 19H5V5H19V19ZM15 11H17V13H15V11Z"/>
  </symbol>

  <!-- Text -->
  <symbol id="icon-text" viewBox="0 0 24 24">
    <path d="M5 3V6H10.5V20H13.5V6H19V3H5Z"/>
  </symbol>

  <!-- Rack -->
  <symbol id="icon-rack" viewBox="0 0 24 24">
    <!-- Outer frame -->
    <path d="M4 2C2.9 2 2 2.9 2 4V20C2 21.1 2.9 22 4 22H20C21.1 22 22 21.1 22 20V4C22 2.9 21.1 2 20 2H4ZM4 20V4H20V20H4Z" />
    <!-- Server blades -->
    <rect x="6" y="5" width="12" height="3" rx="0.5" />
    <rect x="6" y="10.5" width="12" height="3" rx="0.5" />
    <rect x="6" y="16" width="12" height="3" rx="0.5" />
    <!-- Indicators -->
    <circle cx="16.5" cy="6.5" r="0.8" />
    <circle cx="16.5" cy="12" r="0.8" />
    <circle cx="16.5" cy="17.5" r="0.8" />
  </symbol>
</svg>
